:version 1.10
:name ASF
:units
  mass 1
  length 1
  angle deg
:documentation
  ASF file generated by Kaydara
:root
  axis xyz
  order  tx ty tz rx ry rz
  position 0 0 0
  orientation 0 0 0
:bonedata
  begin
    id 1
    name RightUpLegDummy
    direction -0.718183 -0.695806 0.00816078
    length 4.904
    axis 0 0 0 xyz
  end
  begin
    id 2
    name RightUpLeg
    direction 3.53989e-006 -0.995788 0.0916897
    length 17.4976
    axis -3.49089 -0.000906621 0.000287158 xyz
    dof rx ry rz
  end
  begin
    id 3
    name RightLeg
    direction 0.00371093 -0.995096 -0.0988418
    length 16.5821
    axis 3.68512 0.0193738 -0.131023 xyz
    dof rx ry rz
  end
  begin
    id 4
    name RightFoot
    direction 0.000791514 -0.46099 0.887405
    length 3.77069
    axis 4.84075e-005 -0.120479 -0.188788 xyz
    dof rx ry rz
  end
  begin
    id 5
    name RightToes
    direction 0.00124746 -0.014064 0.9999
    length 3.85082
    axis 0.00048216 0.542163 -0.142577 xyz
    dof rx ry rz
  end
  begin
    id 6
    name SpineDummy
    direction 8.36599e-015 1 5.97571e-016
    length 4.6813
    axis 0 0 0 xyz
  end
  begin
    id 7
    name Spine
    direction -4.63632e-008 0.999988 0.00495137
    length 10.1015
    axis -0.00138897 0.000121419 3.25764e-006 xyz
    dof rx ry rz
  end
  begin
    id 8
    name Spine1
    direction 0 0 0
    length 0
    axis -0.00138896 0.000121452 2.39764e-006 xyz
    dof rx ry rz
  end
  begin
    id 9
    name HEadDummy
    direction -3.91456e-008 0.999999 0.00127422
    length 3.43865
    axis -0.00138896 0.000121452 2.39764e-006 xyz
  end
  begin
    id 10
    name HEad
    direction -0.0222688 0.980941 0.193023
    length 5.12695
    axis -0.00138895 0.000121452 2.39764e-006 xyz
    dof rx ry rz
  end
  begin
    id 11
    name LeftShoulder1Dummy
    direction 0.998891 -0.0402508 -0.0244456
    length 3.5433
    axis -0.00138896 0.000121452 2.39764e-006 xyz
  end
  begin
    id 12
    name LeftShoulder1
    direction 0.99951 -0.000327743 0.0313091
    length 4.05031
    axis -0.00138896 0.000121452 2.39764e-006 xyz
    dof rx ry rz
  end
  begin
    id 13
    name LeftArm
    direction 0.998561 -0.00100054 -0.0536182
    length 10.3537
    axis -23.1894 0.134784 0.96751 xyz
    dof rx ry rz
  end
  begin
    id 14
    name LeftForeArm
    direction 0.998903 0.00866434 0.046012
    length 8.70632
    axis -9.91835 -0.06569 -0.177792 xyz
    dof rx ry rz
  end
  begin
    id 15
    name LeftHand
    direction 0.992938 -0.0411636 0.11126
    length 5.32135
    axis -0.00960227 -0.00340091 0.185174 xyz
    dof rx ry rz
  end
  begin
    id 16
    name RightShoulderDummy
    direction -0.998891 -0.0402509 -0.0244414
    length 3.5433
    axis -0.00138896 0.000121452 2.39764e-006 xyz
  end
  begin
    id 17
    name RightShoulder
    direction -0.99951 -0.000327827 0.0313133
    length 4.05031
    axis 0.215806 0.000203644 -0.00680151 xyz
    dof rx ry rz
  end
  begin
    id 18
    name RightArm
    direction -0.998573 -0.000999583 -0.053403
    length 10.3947
    axis -23.2009 -0.134239 -0.9641 xyz
    dof rx ry rz
  end
  begin
    id 19
    name RightForeArm
    direction -0.998898 0.00868026 0.0461306
    length 8.68355
    axis -9.92322 0.0658061 0.178869 xyz
    dof rx ry rz
  end
  begin
    id 20
    name RightHand
    direction -0.992843 -0.0414603 0.112003
    length 5.28593
    axis -0.00960634 0.00330671 -0.185226 xyz
    dof rx ry rz
  end
  begin
    id 21
    name LeftUpLegDummy
    direction 0.718183 -0.695806 0.00816078
    length 4.904
    axis 0 0 0 xyz
  end
  begin
    id 22
    name LeftUpLeg
    direction -6.8115e-006 -0.995793 0.0916336
    length 17.4976
    axis -3.48766 0.00143441 -0.000523914 xyz
    dof rx ry rz
  end
  begin
    id 23
    name LeftLeg
    direction -0.00601357 -0.995091 -0.0987824
    length 16.5821
    axis 3.68177 -0.00654038 -0.00028478 xyz
    dof rx ry rz
  end
  begin
    id 24
    name LeftFoot
    direction -0.00417578 -0.460984 0.887399
    length 3.77069
    axis 1.87232e-006 4.66002e-005 -8.1837e-006 xyz
    dof rx ry rz
  end
  begin
    id 25
    name LeftToes
    direction 0.00818058 -0.00485161 0.999955
    length 3.85048
    axis 1.06246e-005 4.65855e-005 -8.18502e-006 xyz
    dof rx ry rz
  end
:hierarchy
  begin
    root RightUpLegDummy SpineDummy LeftUpLegDummy
    RightUpLegDummy RightUpLeg
    RightUpLeg RightLeg
    RightLeg RightFoot
    RightFoot RightToes
    SpineDummy Spine
    Spine Spine1
    Spine1 HEadDummy LeftShoulder1Dummy RightShoulderDummy
    HEadDummy HEad
    LeftShoulder1Dummy LeftShoulder1
    LeftShoulder1 LeftArm
    LeftArm LeftForeArm
    LeftForeArm LeftHand
    RightShoulderDummy RightShoulder
    RightShoulder RightArm
    RightArm RightForeArm
    RightForeArm RightHand
    LeftUpLegDummy LeftUpLeg
    LeftUpLeg LeftLeg
    LeftLeg LeftFoot
    LeftFoot LeftToes
  end

:SAMPLES-PER-SECOND 30
:FULLY-SPECIFIED
:DEGREES
1
root  -2.94698 40.9268 0.760139 -178.39 -89.761 178.188
RightUpLeg  2.7488 -0.978481 -1.58156
RightLeg  -0.904712 -17.7568 -0.283892
RightFoot  -0.584635 -0.314623 3.39713
RightToes  -3.13006e-008 1.75238e-005 3.56266e-009
Spine  -0.966136 -0.260739 -0.160509
Spine1  -0.184691 -0.0939363 -0.936231
HEad  -2.28136 -9.34851 3.89306
LeftShoulder1  0.221892 1.22166 -1.44202
LeftArm  -53.3462 -9.61699 7.15509
LeftForeArm  63.1574 3.72232 7.16433
LeftHand  -0.22048 -1.83327 3.72078
RightShoulder  0.0572694 -2.69239 -0.29875
RightArm  -42.9349 5.13373 -0.353729
RightForeArm  33.2906 -2.46758 0.588064
RightHand  -0.00683308 3.83822 -0.264226
LeftUpLeg  2.93179 0.67982 1.07218
LeftLeg  -0.557812 13.4661 -0.606844
LeftFoot  -1.95854 0.124462 -1.27381
LeftToes  4.78685e-008 1.46778e-008 1.34523e-009
2
root  -2.95282 40.9268 0.760933 -178.885 -89.8385 178.638
RightUpLeg  2.8364 -0.933647 -1.54644
RightLeg  -0.945426 -17.896 -0.318584
RightFoot  -0.569226 -0.316079 3.41971
RightToes  -3.13006e-008 1.75238e-005 3.56266e-009
Spine  -0.862205 -0.293781 -0.217641
Spine1  -0.192208 -0.15453 -0.789939
HEad  -2.38836 -9.04247 3.79891
LeftShoulder1  0.21165 1.34202 -1.51797
LeftArm  -53.5643 -9.69374 7.09784
LeftForeArm  63.559 3.66846 7.38758
LeftHand  -0.219184 -2.04357 3.6066
RightShoulder  0.0572763 -2.66725 -0.394808
RightArm  -42.8562 5.08542 -0.394668
RightForeArm  33.1803 -2.51279 0.636856
RightHand  -0.00446846 3.62344 -0.309504
LeftUpLeg  3.00144 0.646845 1.05573
LeftLeg  -0.603064 13.4094 -0.571165
LeftFoot  -1.90566 0.127933 -1.32777
LeftToes  4.78685e-008 1.46778e-008 1.34523e-009
3
root  -2.96519 40.9284 0.7645 -177.076 -89.9003 176.84
RightUpLeg  2.85065 -0.957842 -1.56128
RightLeg  -0.947077 -17.938 -0.313124
RightFoot  -0.555773 -0.318329 3.45464
RightToes  -3.13006e-008 1.75238e-005 3.56266e-009
Spine  -1.02687 -0.365706 -0.22062
Spine1  0.0843421 -0.224765 -0.7308
HEad  -2.23582 -8.50499 3.69208
LeftShoulder1  0.202043 1.42618 -1.43398
LeftArm  -53.7017 -9.58142 7.0075
LeftForeArm  63.9212 3.61718 7.60346
LeftHand  -0.256658 -2.08623 4.1772
RightShoulder  0.0572679 -2.71679 -0.409309
RightArm  -43.0688 5.27812 -0.346305
RightForeArm  33.0432 -2.61438 0.496912
RightHand  0.0151144 3.24983 -0.0341581
LeftUpLeg  3.07618 0.614783 1.04482
LeftLeg  -0.750694 13.3831 -0.589906
LeftFoot  -1.86123 0.130211 -1.36317
LeftToes  4.78685e-008 1.46778e-008 1.34523e-009
4
root  -2.98566 40.9312 0.761934 -0.202 -90 0
RightUpLeg  2.89914 -0.99645 -1.56546
RightLeg  -1.0361 -17.9679 -0.277065
RightFoot  -0.566144 -0.318982 3.46477
RightToes  -3.13006e-008 1.75238e-005 3.56266e-009
Spine  -1.11487 -0.467632 -0.138841
Spine1  0.235476 -0.286544 -0.818475
HEad  -2.14644 -8.41139 3.47269
LeftShoulder1  0.168864 1.70519 -1.06313
LeftArm  -53.6003 -9.54528 6.61152
LeftForeArm  64.0158 3.61424 7.60107
LeftHand  -0.256786 -2.02097 4.2099
RightShoulder  0.0572512 -2.80159 -0.366904
RightArm  -43.297 5.46164 -0.232657
RightForeArm  33.2883 -2.65708 0.32775
RightHand  0.0318957 3.43135 0.171612
LeftUpLeg  3.13993 0.552952 1.02713
LeftLeg  -0.910826 13.3621 -0.593687
LeftFoot  -1.78451 0.128811 -1.34141
LeftToes  4.78685e-008 1.46778e-008 1.34523e-009
5
root  -3.00001 40.9329 0.759382 -0.0929842 -90 0
RightUpLeg  2.82865 -0.971723 -1.58563
RightLeg  -1.10071 -17.9446 -0.24101
RightFoot  -0.556937 -0.317152 3.43637
RightToes  -3.13006e-008 1.75238e-005 3.56266e-009
Spine  -1.26987 -0.424011 -0.00178501
Spine1  0.34198 -0.251959 -0.969736
HEad  -2.14324 -7.88939 3.51717
LeftShoulder1  0.16995 1.66169 -0.879222
LeftArm  -53.5515 -9.40641 6.57304
LeftForeArm  63.9193 3.62126 7.5808
LeftHand  -0.26099 -2.16411 4.2028
RightShoulder  0.0548698 -2.83262 -0.34498
RightArm  -43.168 5.40904 -0.222621
RightForeArm  33.5304 -2.64086 0.407164
RightHand  0.0507651 3.92869 0.368937
LeftUpLeg  3.08857 0.552216 1.00865
LeftLeg  -0.995312 13.4152 -0.60891
LeftFoot  -1.7422 0.135019 -1.43791
LeftToes  4.78685e-008 1.46778e-008 1.34523e-009
6
root  -3.01443 40.9327 0.75098 -0.0529981 -90 0
RightUpLeg  2.82024 -1.01113 -1.55745
RightLeg  -1.12735 -17.9632 -0.226978
RightFoot  -0.560386 -0.314808 3.39999
RightToes  -3.13006e-008 1.75238e-005 3.56266e-009
Spine  -1.17699 -0.42328 0.017921
Spine1  0.179907 -0.215654 -0.909088
HEad  -1.86059 -7.7145 3.35597
LeftShoulder1  0.190895 1.42255 -0.814432
LeftArm  -53.3705 -9.18445 6.71022
LeftForeArm  64.2149 3.629 7.47818
LeftHand  -0.286147 -2.46243 4.44061
RightShoulder  0.0760236 -2.57355 -0.337637
RightArm  -42.9595 4.9189 -0.347417
RightForeArm  33.4006 -2.42594 0.517079
RightHand  0.0479138 3.63924 0.35705
LeftUpLeg  3.1272 0.505739 1.0317
LeftLeg  -1.12292 13.4239 -0.63273
LeftFoot  -1.69634 0.133295 -1.41111
LeftToes  4.78685e-008 1.46778e-008 1.34523e-009
